<svg width="100" height="100" viewBox="0 0 100 100" fill="none" xmlns="http://www.w3.org/2000/svg">
<rect width="100" height="100" rx="50" fill="white"/>
<path d="M83.32 58.7988C85.8107 58.7988 87.694 60.6821 87.694 63.1121C87.694 65.6028 85.8107 67.5468 83.32 67.5468C80.7685 67.5468 78.946 65.6028 78.946 63.1121C78.946 60.6821 80.7685 58.7988 83.32 58.7988Z" fill="black"/>
<path d="M48.571 24.4751H78.0955V36.5036H76.9412V32.1296C76.9412 26.4798 75.7262 25.6901 70.5017 25.6901H61.7537V45.3731H65.095C70.3195 45.3731 71.0485 44.2796 71.0485 38.6298V36.5036H72.2027V55.6399H71.0485V53.5136C71.0485 47.8638 70.3195 46.7703 65.095 46.7703H61.7537V62.5046C61.7537 65.4814 62.3005 65.7851 65.3987 65.7851H66.2492V67.0001H48.571V65.7851H49.4215C52.5197 65.7851 53.0665 65.4813 53.0665 62.4438V29.0314C53.0665 25.9938 52.5197 25.6901 49.4215 25.6901H48.571V24.4751Z" fill="black"/>
<path d="M45.5406 65.7851H46.4518V67.0001H29.1988V65.7851H29.6241C32.7223 65.7851 33.3906 65.2383 32.4186 62.2008L29.5633 52.9669H19.2358L16.2591 62.4438C15.2871 65.5421 15.8946 65.7851 18.9928 65.7851H19.4788V67.0001H9.69807V65.7851H10.9131C13.1608 65.7851 13.8291 64.7523 14.3758 63.1728L26.3436 24.4751H29.5633L42.0778 63.4158C42.6246 65.1168 43.2928 65.7851 45.5406 65.7851ZM19.6611 51.4481H29.0773L24.3996 36.3214L19.6611 51.4481Z" fill="black"/>
</svg>
