<svg width="100" height="100" viewBox="0 0 100 100" fill="none" xmlns="http://www.w3.org/2000/svg">
<path d="M86.0082 60.9772C88.4819 60.9772 90.287 62.8492 90.287 65.256C90.287 67.6629 88.4819 69.6017 86.0082 69.6017C83.5345 69.6017 81.6625 67.6629 81.6625 65.256C81.6625 62.8492 83.5345 60.9772 86.0082 60.9772Z" fill="white"/>
<path d="M49.2786 22.2H80.1666V34.2343H79.2306V30.2229C79.2306 24.072 78.4283 23.136 72.6786 23.136H61.3129V44.664H65.9929C71.6757 44.664 72.478 43.4606 72.478 37.2429V34.9029H73.414V55.428H72.478V53.088C72.478 46.8703 71.6757 45.6669 65.9929 45.6669H61.3129V64.4537C61.3129 67.8634 61.9146 68.064 65.3243 68.064H66.2603V69H49.2786V68.064H50.2146C53.6243 68.064 54.226 67.8634 54.226 64.4537V26.8132C54.226 23.4034 53.6243 23.136 50.2146 23.136H49.2786V22.2Z" fill="white"/>
<path d="M45.4457 68.064H46.4486V69H30.5366V68.064H30.9377C34.3474 68.064 34.8823 67.4623 33.8126 64.1194L30.336 52.7537H17.4326L13.8223 64.4537C12.7526 67.7966 13.4211 68.064 16.8309 68.064H17.232V69H7.73828V68.064H8.808C11.2149 68.064 11.9503 66.9943 12.552 65.1892L25.8566 22.2H27.8623L41.7686 65.4566C42.3703 67.3286 42.972 68.064 45.4457 68.064ZM17.7669 51.684H30.0017L23.8509 31.9612L17.7669 51.684Z" fill="white"/>
</svg>
